<svg width="512" height="512" viewBox="0 0 512 512" fill="none" xmlns="http://www.w3.org/2000/svg">
<g clip-path="url(#clip0)">
<path d="M506.633 316.32C503.379 315.027 499.664 315.836 497.246 318.367L460.801 356.676V129.133H460.844L495.617 91.586C498.816 88.1289 498.605 82.7266 495.145 79.5274C495.145 79.5274 495.141 79.5235 495.137 79.5195L482.621 67.8711L500.012 49.0977C503.207 45.6367 502.992 40.2383 499.531 37.043L461.984 2.26955C458.527 -0.929671 453.129 -0.722639 449.93 2.7383L389.258 68.25H93.8672C93.8398 44.6953 74.7539 25.6094 51.1992 25.582H42.668C19.1133 25.6094 0.0273438 44.6953 0 68.25V435.184C0 439.895 3.82031 443.715 8.53516 443.715H137.711L119.789 465.234C116.777 468.859 117.27 474.238 120.891 477.25L160.238 510.012C163.859 513.027 169.242 512.535 172.258 508.914L172.262 508.91L215.938 456.438C218.953 452.805 220.895 448.395 221.535 443.715H377.898L326.613 497.57C323.367 500.984 323.504 506.387 326.918 509.633C328.504 511.141 330.609 511.984 332.801 511.98H503.465C508.18 511.98 512 508.16 512 503.449V324.25C512 320.758 509.875 317.617 506.633 316.32V316.32ZM477.297 86.168L460.801 104.012V91.461L471.039 80.3672L477.297 86.168ZM443.734 84.6485V84.7695L371.566 162.766L346.504 139.578L433.441 45.625L458.504 68.8125L443.836 84.6485H443.734ZM355.176 170.836L335.547 176.563L339.738 156.543L355.176 170.836ZM456.629 20.5742L481.68 43.75L470.086 56.3008L445.031 33.1016L456.629 20.5742ZM42.668 42.6485H51.1992C65.3398 42.6485 76.8008 54.1094 76.8008 68.25V392.738C69.457 387.09 60.4609 384.012 51.1992 383.98H42.668C33.4023 384.012 24.4102 387.09 17.0664 392.738V68.25C17.0664 54.1094 28.5273 42.6485 42.668 42.6485ZM42.668 401.047H51.1992C65.3398 401.047 76.8008 412.512 76.8008 426.648H17.0664C17.0664 412.512 28.5273 401.047 42.668 401.047ZM202.828 445.523L197.367 452.078L171.137 430.242L176.59 423.68C179.605 420.059 184.984 419.566 188.605 422.582C188.609 422.582 188.609 422.586 188.613 422.586L201.727 433.477C205.352 436.488 205.848 441.867 202.836 445.492C202.832 445.496 202.832 445.496 202.828 445.5V445.523ZM164.609 491.434L138.375 469.598L160.215 443.355L186.445 465.195L164.609 491.434ZM217.949 426.648C216.531 424.285 214.738 422.172 212.641 420.387L199.527 409.473C188.66 400.426 172.52 401.898 163.473 412.766L151.895 426.648H93.8672V85.3164H373.469L328.184 134.254C327.535 134.984 327.02 135.828 326.664 136.738C326.563 136.984 326.484 137.215 326.398 137.473C326.316 137.727 326.188 137.984 326.125 138.258L315.938 186.965C314.977 191.578 317.938 196.098 322.551 197.059C323.922 197.344 325.34 197.289 326.68 196.898L374.469 182.973C374.691 182.902 374.879 182.773 375.09 182.699C375.305 182.621 375.527 182.512 375.758 182.398C376.715 181.965 377.582 181.352 378.316 180.598L443.734 109.898V374.594L394.156 426.648H217.949ZM494.934 494.914H352.707L494.934 345.582V494.914Z" fill="white"/>
<path d="M401.715 472.582C403.035 475.77 406.148 477.848 409.602 477.848H469.332C474.047 477.848 477.867 474.027 477.867 469.316V409.582C477.867 404.867 474.043 401.051 469.332 401.051C467.07 401.051 464.898 401.949 463.301 403.551L403.566 463.281C401.125 465.723 400.395 469.395 401.715 472.582V472.582ZM460.801 430.18V460.781H430.199L460.801 430.18Z" fill="white"/>
<path d="M375.465 324.25H315.734V230.383C315.723 228.117 314.82 225.945 313.223 224.34L262.023 173.141C258.691 169.809 253.289 169.809 249.957 173.141L198.758 224.34C197.168 225.949 196.273 228.121 196.266 230.383V324.25H136.535C131.82 324.25 128 328.07 128 332.781C128 337.496 131.82 341.316 136.535 341.316H375.469C380.18 341.316 384 337.496 384 332.781C384 328.07 380.18 324.25 375.465 324.25V324.25ZM256 191.246L286.602 221.848H225.398L256 191.246ZM213.332 238.914H298.668V324.25H213.332V238.914Z" fill="white"/>
<path d="M247.465 136.516H264.535V153.582H247.465V136.516Z" fill="white"/>
<path d="M247.465 358.383H264.535V375.449H247.465V358.383Z" fill="white"/>
</g>
<defs>
<clipPath id="clip0">
<rect width="512" height="512" fill="white"/>
</clipPath>
</defs>
</svg>
