<svg id="Capa_1" enable-background="new 0 0 512 512" height="512" viewBox="0 0 512 512" width="512" xmlns="http://www.w3.org/2000/svg"><g><path d="m105.692 69.903h-36.596c-3.289 0-6.264 1.361-8.418 3.515s-3.516 5.131-3.516 8.419v343.166c0 4.139-3.346 7.512-7.484 7.512-4.139 0-7.513-3.374-7.513-7.512v-343.166c0-7.427 3.034-14.145 7.911-19.021 4.875-4.875 11.592-7.909 19.02-7.909h36.596c1.445-6.633 4.791-12.558 9.439-17.178 6.32-6.35 15.081-10.262 24.69-10.262 5.754-.482 7.965-.368 10.289-5.839 2.467-5.812 6.436-10.857 11.396-14.599 5.812-4.392 12.984-7.029 20.835-7.029h47.112c7.824 0 15.023 2.637 20.836 7.03 4.959 3.77 9.041 8.815 11.422 14.712 2.014 4.989 3.885 5.499 10.234 5.726 9.637 0 18.367 3.912 24.717 10.262 4.622 4.62 7.968 10.545 9.44 17.178h36.596c7.398 0 14.145 3.033 19.022 7.909 4.875 4.876 7.879 11.594 7.879 19.021v26.107c0 4.139-3.344 7.483-7.482 7.483s-7.512-3.345-7.512-7.483v-26.108c0-3.288-1.332-6.265-3.486-8.419-2.184-2.154-5.16-3.515-8.42-3.515h-36.596c-1.473 6.633-4.818 12.558-9.44 17.207-6.35 6.321-15.08 10.261-24.717 10.261h-132.124c-9.609 0-18.37-3.94-24.69-10.261-4.649-4.649-7.995-10.573-9.44-17.207zm349.146 38.042v-35.348c0-1.446-1.246-2.693-2.721-2.693h-31.607c-1.473 0-2.691 1.248-2.691 2.693v35.348zm14.997-35.348v209.936c0 4.139-3.373 7.512-7.512 7.512s-7.484-3.373-7.484-7.512v-128.496h-37.02v290.951h37.02v-128.468c0-4.139 3.346-7.512 7.484-7.512 4.139 0 7.512 3.373 7.512 7.512v135.98c0 1.418-.51 2.665-1.135 3.968l-25.709 51.393c-1.844 3.685-6.322 5.159-10.008 3.316-1.502-.737-2.664-1.956-3.344-3.345l-25.682-51.365c-.738-1.162-1.135-2.522-1.135-3.968 0-126.625 0-253.25 0-379.903 0-4.848 1.984-9.298 5.188-12.502 3.203-3.203 7.625-5.188 12.5-5.188h31.607c4.875 0 9.297 1.984 12.5 5.188 3.233 3.204 5.218 7.627 5.218 12.503zm-14.997 66.444v-16.101h-37.02v16.101zm-32.427 320.971 13.918 27.808 13.891-27.808zm-236.98-28.149c-4.139 0-7.484-3.345-7.484-7.512 0-4.139 3.346-7.483 7.484-7.483h132.266c4.139 0 7.484 3.345 7.484 7.483 0 4.167-3.346 7.512-7.484 7.512zm0-29.112c-4.139 0-7.484-3.373-7.484-7.512s3.346-7.483 7.484-7.483h72.085c4.139 0 7.484 3.345 7.484 7.483 0 4.139-3.346 7.512-7.484 7.512zm0-49.522c-4.139 0-7.484-3.345-7.484-7.483 0-4.139 3.346-7.512 7.484-7.512h132.266c4.139 0 7.484 3.374 7.484 7.512s-3.346 7.483-7.484 7.483zm0-29.112c-4.139 0-7.484-3.373-7.484-7.512s3.346-7.483 7.484-7.483h72.085c4.139 0 7.484 3.345 7.484 7.483 0 4.139-3.346 7.512-7.484 7.512zm0-49.522c-4.139 0-7.484-3.345-7.484-7.483 0-4.139 3.346-7.512 7.484-7.512h132.266c4.139 0 7.484 3.373 7.484 7.512s-3.346 7.483-7.484 7.483zm0-29.112c-4.139 0-7.484-3.345-7.484-7.483 0-4.167 3.346-7.512 7.484-7.512h72.085c4.139 0 7.484 3.345 7.484 7.512 0 4.139-3.346 7.483-7.484 7.483zm0-49.493c-4.139 0-7.484-3.374-7.484-7.512 0-4.139 3.346-7.512 7.484-7.512h132.266c4.139 0 7.484 3.373 7.484 7.512s-3.346 7.512-7.484 7.512zm0-29.14c-4.139 0-7.484-3.345-7.484-7.483 0-4.139 3.346-7.512 7.484-7.512h72.085c4.139 0 7.484 3.373 7.484 7.512 0 4.138-3.346 7.483-7.484 7.483zm-89.065 213.139h44.646c4.139 0 7.514 3.345 7.514 7.483v44.646c0 4.167-3.375 7.512-7.514 7.512h-44.646c-4.139 0-7.512-3.345-7.512-7.512v-44.646c0-4.139 3.373-7.483 7.512-7.483zm37.163 14.995h-29.651v29.651h29.651zm-37.163-93.629h44.646c4.139 0 7.514 3.345 7.514 7.483v44.674c0 4.139-3.375 7.483-7.514 7.483h-44.646c-4.139 0-7.512-3.345-7.512-7.483v-44.674c0-4.138 3.373-7.483 7.512-7.483zm37.163 14.995h-29.651v29.651h29.651zm-37.163-93.629h44.646c4.139 0 7.514 3.345 7.514 7.512v44.646c0 4.139-3.375 7.484-7.514 7.484h-44.646c-4.139 0-7.512-3.345-7.512-7.484v-44.646c0-4.167 3.373-7.512 7.512-7.512zm37.163 14.996h-29.651v29.65h29.651zm-37.163-93.631h44.646c4.139 0 7.514 3.374 7.514 7.513v44.646c0 4.139-3.375 7.512-7.514 7.512h-44.646c-4.139 0-7.512-3.373-7.512-7.512v-44.646c0-4.139 3.373-7.513 7.512-7.513zm37.163 14.997h-29.651v29.65h29.651zm13.578-116.62h-7.285c-5.471 0-10.461 2.24-14.089 5.868-3.629 3.6-5.869 8.589-5.869 14.088 0 5.471 2.24 10.46 5.869 14.089 3.628 3.6 8.618 5.868 14.089 5.868h132.124c5.498 0 10.488-2.268 14.088-5.868 3.629-3.628 5.867-8.618 5.867-14.089 0-5.499-2.238-10.488-5.867-14.088-3.6-3.628-8.59-5.868-14.088-5.868h-7.285c-5.33 0-9.014-2.012-11.68-4.875-2.324-2.495-3.486-5.358-4.252-7.881-1.332-4.309-3.969-8.079-7.482-10.715-3.289-2.494-7.342-3.997-11.793-3.997h-47.112c-4.451 0-8.533 1.502-11.82 3.997-3.486 2.637-6.123 6.407-7.455 10.715-.793 2.523-1.957 5.386-4.281 7.881-2.636 2.863-6.322 4.875-11.679 4.875zm-104.941 416.529c0-4.139 3.374-7.512 7.513-7.512s7.484 3.374 7.484 7.512v26.107c0 3.26 1.361 6.236 3.516 8.391 2.154 2.183 5.129 3.515 8.418 3.515h273.603c3.26 0 6.236-1.332 8.42-3.515 2.154-2.154 3.486-5.131 3.486-8.391v-343.195c0-4.139 3.373-7.483 7.512-7.483s7.482 3.345 7.482 7.483v343.195c0 7.399-3.004 14.146-7.879 19.021-4.877 4.876-11.623 7.881-19.022 7.881h-273.603c-7.428 0-14.145-3.005-19.02-7.881-4.877-4.875-7.911-11.622-7.911-19.021v-26.107z"/></g></svg>