<svg width="520" height="158" viewBox="0 0 520 158" fill="none" xmlns="http://www.w3.org/2000/svg">
<path d="M183.738 109V55.6797H198.643C203.013 55.6797 206.932 56.6807 210.398 58.6826C213.865 60.6602 216.563 63.5044 218.492 67.2153C220.445 70.9263 221.421 75.1499 221.421 79.8862V84.7935C221.421 89.5542 220.457 93.7778 218.528 97.4644C216.6 101.151 213.877 103.995 210.362 105.997C206.871 107.999 202.854 109 198.313 109H183.738ZM188.243 59.5249V105.191H198.35C203.965 105.191 208.47 103.336 211.863 99.625C215.257 95.8896 216.954 90.8481 216.954 84.5005V79.813C216.954 73.6851 215.281 68.7778 211.937 65.0913C208.592 61.4048 204.185 59.5493 198.716 59.5249H188.243ZM262.327 83.4385H237.388V105.191H266.062V109H232.884V55.6797H265.879V59.5249H237.388V79.6299H262.327V83.4385ZM313.34 92.374C312.73 97.9893 310.716 102.286 307.298 105.265C303.904 108.243 299.375 109.732 293.711 109.732C289.756 109.732 286.253 108.744 283.201 106.766C280.174 104.789 277.83 101.993 276.17 98.3799C274.51 94.7422 273.667 90.5918 273.643 85.9287V79.0073C273.643 74.271 274.473 70.0718 276.133 66.4097C277.793 62.7476 280.174 59.9277 283.274 57.9502C286.399 55.9482 289.988 54.9473 294.041 54.9473C299.754 54.9473 304.258 56.4976 307.554 59.5981C310.875 62.6743 312.803 66.9346 313.34 72.3789H308.799C307.676 63.3213 302.757 58.7925 294.041 58.7925C289.207 58.7925 285.35 60.5991 282.469 64.2124C279.612 67.8257 278.184 72.8184 278.184 79.1904V85.709C278.184 91.8613 279.576 96.7686 282.359 100.431C285.167 104.093 288.951 105.924 293.711 105.924C298.423 105.924 301.976 104.801 304.368 102.555C306.761 100.284 308.238 96.8906 308.799 92.374H313.34ZM324.29 109V55.6797H340.037C345.75 55.6797 350.083 56.8638 353.038 59.2319C355.992 61.5757 357.469 65.0425 357.469 69.6323C357.469 72.3911 356.712 74.7959 355.198 76.8467C353.709 78.873 351.658 80.3257 349.046 81.2046C352.146 81.8882 354.637 83.4141 356.517 85.7822C358.421 88.1504 359.373 90.8848 359.373 93.9854C359.373 98.6973 357.847 102.384 354.795 105.045C351.768 107.682 347.544 109 342.125 109H324.29ZM328.794 83.3652V105.191H342.308C346.165 105.191 349.217 104.215 351.463 102.262C353.733 100.284 354.869 97.5498 354.869 94.0586C354.869 90.7627 353.782 88.1626 351.609 86.2583C349.461 84.3296 346.482 83.3652 342.674 83.3652H328.794ZM328.794 79.5933H341.099C344.859 79.52 347.764 78.6411 349.815 76.9565C351.89 75.2476 352.928 72.7695 352.928 69.5225C352.928 66.1045 351.854 63.5898 349.705 61.9785C347.581 60.3428 344.358 59.5249 340.037 59.5249H328.794V79.5933ZM399.07 94.0586H374.864L369.371 109H364.646L384.825 55.6797H389.109L409.288 109H404.6L399.07 94.0586ZM376.255 90.2134H397.642L386.949 61.1729L376.255 90.2134ZM447.337 95.8896C447.337 92.9355 446.299 90.604 444.224 88.895C442.149 87.1616 438.353 85.5259 432.835 83.9878C427.317 82.4253 423.289 80.7285 420.75 78.8975C417.137 76.3096 415.33 72.916 415.33 68.7168C415.33 64.6396 417.002 61.3315 420.347 58.7925C423.716 56.229 428.013 54.9473 433.238 54.9473C436.778 54.9473 439.939 55.6309 442.723 56.998C445.53 58.3652 447.703 60.2695 449.241 62.7109C450.779 65.1523 451.548 67.8745 451.548 70.8774H447.007C447.007 67.2397 445.762 64.3223 443.272 62.125C440.782 59.9033 437.437 58.7925 433.238 58.7925C429.161 58.7925 425.914 59.708 423.497 61.5391C421.08 63.3457 419.871 65.7139 419.871 68.6436C419.871 71.3535 420.958 73.563 423.13 75.272C425.303 76.981 428.782 78.4946 433.567 79.813C438.353 81.1069 441.978 82.4619 444.444 83.8779C446.91 85.2695 448.765 86.9419 450.01 88.895C451.255 90.8481 451.878 93.1553 451.878 95.8164C451.878 100.016 450.193 103.385 446.824 105.924C443.479 108.463 439.061 109.732 433.567 109.732C429.808 109.732 426.353 109.061 423.204 107.718C420.079 106.375 417.698 104.496 416.062 102.079C414.451 99.6616 413.646 96.8906 413.646 93.7656H418.15C418.15 97.5254 419.554 100.492 422.361 102.665C425.169 104.837 428.904 105.924 433.567 105.924C437.718 105.924 441.05 105.008 443.565 103.177C446.08 101.346 447.337 98.917 447.337 95.8896ZM491.062 83.4385H466.124V105.191H494.798V109H461.619V55.6797H494.615V59.5249H466.124V79.6299H491.062V83.4385Z" fill="#426054"/>
<mask id="mask0" x="0" y="0" width="504" height="158">
<rect width="504" height="158" fill="#C4C4C4"/>
</mask>
<g mask="url(#mask0)">
<path d="M5.08609 3L34.5 51.9182V156.285L2.5 105.099V6V3H5.08609Z" stroke="#B1855B" stroke-width="5"/>
<path d="M2 3H80.5C113 18.5 98.6182 46.8053 84 53H35.2976" stroke="#B1855B" stroke-width="5"/>
<path d="M35 54H89.5C130.5 60.5 161 130 91 155.5H35" stroke="#B1855B" stroke-width="5"/>
<path d="M81.1841 53C114.5 70.5 99.5 99.5 81.1841 105H1.5" stroke="#B1855B" stroke-width="5"/>
</g>
</svg>
